<?xml version="1.0" encoding="UTF-8"?>
<!--Generator: Apple Native CoreSVG 326-->
<!DOCTYPE svg
PUBLIC "-//W3C//DTD SVG 1.1//EN"
       "http://www.w3.org/Graphics/SVG/1.1/DTD/svg11.dtd">
<svg version="1.1" xmlns="http://www.w3.org/2000/svg" xmlns:xlink="http://www.w3.org/1999/xlink" viewBox="0 0 199.219 199.316">
 <g>
  <rect height="199.316" opacity="0" width="199.219" x="0" y="0"/>
  <path d="M99.6094 199.219C154.59 199.219 199.219 154.59 199.219 99.6094C199.219 44.6289 154.59 0 99.6094 0C44.6289 0 0 44.6289 0 99.6094C0 154.59 44.6289 199.219 99.6094 199.219ZM99.6094 182.617C53.7109 182.617 16.6016 145.508 16.6016 99.6094C16.6016 53.7109 53.7109 16.6016 99.6094 16.6016C145.508 16.6016 182.617 53.7109 182.617 99.6094C182.617 145.508 145.508 182.617 99.6094 182.617Z" fill="black" fill-opacity="0.85"/>
  <path d="M88.8672 145.996C92.0898 145.996 94.8242 144.434 96.7773 141.406L141.406 71.1914C142.48 69.2383 143.75 67.0898 143.75 64.9414C143.75 60.5469 139.844 57.7148 135.742 57.7148C133.301 57.7148 130.859 59.2773 129.004 62.1094L88.4766 127.148L69.2383 102.246C66.8945 99.1211 64.7461 98.3398 62.0117 98.3398C57.8125 98.3398 54.4922 101.758 54.4922 106.055C54.4922 108.203 55.3711 110.254 56.7383 112.109L80.5664 141.406C83.0078 144.629 85.6445 145.996 88.8672 145.996Z" fill="black" fill-opacity="0.85"/>
 </g>
</svg>
