<?xml version="1.0" encoding="UTF-8"?>
<!--Generator: Apple Native CoreSVG 326-->
<!DOCTYPE svg
PUBLIC "-//W3C//DTD SVG 1.1//EN"
       "http://www.w3.org/Graphics/SVG/1.1/DTD/svg11.dtd">
<svg version="1.1" xmlns="http://www.w3.org/2000/svg" xmlns:xlink="http://www.w3.org/1999/xlink" viewBox="0 0 193.945 185.254">
 <g>
  <rect height="185.254" opacity="0" width="193.945" x="0" y="0"/>
  <path d="M0 64.9414C0 106.543 34.8633 147.461 89.9414 182.617C91.9922 183.887 94.9219 185.254 96.9727 185.254C99.0234 185.254 101.953 183.887 104.102 182.617C159.082 147.461 193.945 106.543 193.945 64.9414C193.945 30.3711 170.215 5.95703 138.574 5.95703C120.508 5.95703 105.859 14.5508 96.9727 27.7344C88.2812 14.6484 73.4375 5.95703 55.3711 5.95703C23.7305 5.95703 0 30.3711 0 64.9414ZM15.7227 64.9414C15.7227 38.9648 32.5195 21.6797 55.1758 21.6797C73.5352 21.6797 84.082 33.1055 90.332 42.8711C92.9688 46.7773 94.6289 47.8516 96.9727 47.8516C99.3164 47.8516 100.781 46.6797 103.613 42.8711C110.352 33.3008 120.508 21.6797 138.77 21.6797C161.426 21.6797 178.223 38.9648 178.223 64.9414C178.223 101.27 139.844 140.43 99.0234 167.578C98.0469 168.262 97.3633 168.75 96.9727 168.75C96.582 168.75 95.8984 168.262 95.0195 167.578C54.1016 140.43 15.7227 101.27 15.7227 64.9414Z" fill="black" fill-opacity="0.85"/>
 </g>
</svg>
