<?xml version="1.0" encoding="UTF-8"?>
<!--Generator: Apple Native CoreSVG 326-->
<!DOCTYPE svg
PUBLIC "-//W3C//DTD SVG 1.1//EN"
       "http://www.w3.org/Graphics/SVG/1.1/DTD/svg11.dtd">
<svg version="1.1" xmlns="http://www.w3.org/2000/svg" xmlns:xlink="http://www.w3.org/1999/xlink" viewBox="0 0 233.203 205.566">
 <g>
  <rect height="205.566" opacity="0" width="233.203" x="0" y="0"/>
  <path d="M88.2812 195.312L144.922 195.312L144.922 132.227C144.922 127.734 141.992 124.805 137.5 124.805L95.8008 124.805C91.3086 124.805 88.2812 127.734 88.2812 132.227ZM8.39844 104.297C11.1328 104.297 13.3789 102.832 15.4297 101.172L113.184 19.043C114.258 18.1641 115.527 17.6758 116.602 17.6758C117.773 17.6758 118.945 18.1641 120.02 19.043L217.871 101.172C219.824 102.832 222.07 104.297 224.805 104.297C230.078 104.297 233.203 100.488 233.203 96.4844C233.203 94.2383 232.324 91.8945 230.078 90.1367L128.32 4.6875C124.609 1.5625 120.605 0 116.602 0C112.598 0 108.594 1.5625 104.883 4.6875L3.125 90.1367C0.976562 91.8945 0 94.2383 0 96.4844C0 100.488 3.125 104.297 8.39844 104.297ZM180.176 52.4414L204.688 73.1445L204.688 29.1016C204.688 24.8047 201.953 22.0703 197.656 22.0703L187.207 22.0703C183.008 22.0703 180.176 24.8047 180.176 29.1016ZM50.5859 205.371L182.715 205.371C196.582 205.371 204.688 197.461 204.688 183.789L204.688 75.5859L188.965 64.9414L188.965 179.883C188.965 186.23 185.547 189.648 179.395 189.648L53.9062 189.648C47.6562 189.648 44.2383 186.23 44.2383 179.883L44.2383 65.0391L28.5156 75.5859L28.5156 183.789C28.5156 197.559 36.6211 205.371 50.5859 205.371Z" fill="black" fill-opacity="0.85"/>
 </g>
</svg>
