<?xml version="1.0" encoding="UTF-8"?>
<!--Generator: Apple Native CoreSVG 326-->
<!DOCTYPE svg
PUBLIC "-//W3C//DTD SVG 1.1//EN"
       "http://www.w3.org/Graphics/SVG/1.1/DTD/svg11.dtd">
<svg version="1.1" xmlns="http://www.w3.org/2000/svg" xmlns:xlink="http://www.w3.org/1999/xlink" viewBox="0 0 190.82 192.676">
 <g>
  <rect height="192.676" opacity="0" width="190.82" x="0" y="0"/>
  <path d="M0 77.9297C0 120.898 34.9609 155.859 77.9297 155.859C94.9219 155.859 110.449 150.391 123.242 141.211L171.289 189.355C173.535 191.602 176.465 192.676 179.59 192.676C186.23 192.676 190.82 187.695 190.82 181.152C190.82 178.027 189.648 175.195 187.598 173.145L139.844 125.098C149.902 112.012 155.859 95.7031 155.859 77.9297C155.859 34.9609 120.898 0 77.9297 0C34.9609 0 0 34.9609 0 77.9297ZM16.6992 77.9297C16.6992 44.1406 44.1406 16.6992 77.9297 16.6992C111.719 16.6992 139.16 44.1406 139.16 77.9297C139.16 111.719 111.719 139.16 77.9297 139.16C44.1406 139.16 16.6992 111.719 16.6992 77.9297Z" fill="white" fill-opacity="0.85"/>
 </g>
</svg>
