<?xml version="1.0" encoding="UTF-8"?>
<!--Generator: Apple Native CoreSVG 326-->
<!DOCTYPE svg
PUBLIC "-//W3C//DTD SVG 1.1//EN"
       "http://www.w3.org/Graphics/SVG/1.1/DTD/svg11.dtd">
<svg version="1.1" xmlns="http://www.w3.org/2000/svg" xmlns:xlink="http://www.w3.org/1999/xlink" viewBox="0 0 203.125 192.676">
 <g>
  <rect height="192.676" opacity="0" width="203.125" x="0" y="0"/>
  <path d="M11.0352 188.867C13.4766 188.867 16.0156 187.988 19.1406 186.23L68.8477 159.473L122.852 189.746C126.367 191.699 130.176 192.676 133.789 192.676C137.207 192.676 140.625 191.797 143.555 190.137L194.629 161.133C200.488 157.91 203.125 153.223 203.125 146.68L203.125 15.1367C203.125 7.91016 199.121 3.90625 192.09 3.90625C189.648 3.90625 187.109 4.6875 183.887 6.44531L132.129 35.2539L79.1016 2.73438C76.0742 0.976562 72.6562 0 69.2383 0C65.7227 0 62.207 0.976562 59.1797 2.73438L8.39844 31.6406C2.63672 34.9609 0 39.6484 0 46.1914L0 177.539C0 184.766 4.00391 188.867 11.0352 188.867ZM62.5 143.945L18.457 168.164C17.9688 168.359 17.4805 168.652 16.9922 168.652C16.2109 168.652 15.7227 168.066 15.7227 167.09L15.7227 50C15.7227 47.6562 16.6016 45.9961 18.9453 44.6289L58.9844 21.1914C60.2539 20.5078 61.3281 19.9219 62.5 19.2383ZM78.2227 145.508L78.2227 21.2891C79.1992 21.875 80.3711 22.4609 81.3477 23.0469L124.902 49.6094L124.902 171.68C123.535 170.898 122.07 170.215 120.605 169.434ZM140.625 173.438L140.625 48.6328L184.668 24.6094C185.156 24.3164 185.645 24.1211 186.035 24.1211C186.914 24.1211 187.402 24.707 187.402 25.6836L187.402 142.773C187.402 145.215 186.426 146.875 184.18 148.242L145.02 170.996C143.555 171.875 142.09 172.754 140.625 173.438Z" fill="white" fill-opacity="0.85"/>
 </g>
</svg>
