<?xml version="1.0" encoding="UTF-8"?>
<!--Generator: Apple Native CoreSVG 326-->
<!DOCTYPE svg
PUBLIC "-//W3C//DTD SVG 1.1//EN"
       "http://www.w3.org/Graphics/SVG/1.1/DTD/svg11.dtd">
<svg version="1.1" xmlns="http://www.w3.org/2000/svg" xmlns:xlink="http://www.w3.org/1999/xlink" viewBox="0 0 199.219 199.316">
 <g>
  <rect height="199.316" opacity="0" width="199.219" x="0" y="0"/>
  <path d="M99.6094 199.219C154.59 199.219 199.219 154.59 199.219 99.6094C199.219 44.6289 154.59 0 99.6094 0C44.6289 0 0 44.6289 0 99.6094C0 154.59 44.6289 199.219 99.6094 199.219ZM99.6094 182.617C53.7109 182.617 16.6016 145.508 16.6016 99.6094C16.6016 53.7109 53.7109 16.6016 99.6094 16.6016C145.508 16.6016 182.617 53.7109 182.617 99.6094C182.617 145.508 145.508 182.617 99.6094 182.617ZM166.406 163.965L166.113 162.891C161.328 148.535 135.547 132.812 99.6094 132.812C63.7695 132.812 37.9883 148.535 33.1055 162.793L32.8125 163.965C50.3906 181.348 80.5664 191.504 99.6094 191.504C118.75 191.504 148.633 181.445 166.406 163.965ZM99.6094 116.211C118.457 116.406 133.105 100.391 133.105 79.3945C133.105 59.668 118.359 43.3594 99.6094 43.3594C80.8594 43.3594 66.0156 59.668 66.1133 79.3945C66.2109 100.391 80.8594 116.016 99.6094 116.211Z" fill="black" fill-opacity="0.85"/>
 </g>
</svg>
