<?xml version="1.0" encoding="UTF-8"?>
<!--Generator: Apple Native CoreSVG 326-->
<!DOCTYPE svg
PUBLIC "-//W3C//DTD SVG 1.1//EN"
       "http://www.w3.org/Graphics/SVG/1.1/DTD/svg11.dtd">
<svg version="1.1" xmlns="http://www.w3.org/2000/svg" xmlns:xlink="http://www.w3.org/1999/xlink" viewBox="0 0 173.047 216.309">
 <g>
  <rect height="216.309" opacity="0" width="173.047" x="0" y="0"/>
  <path d="M110.059 31.4453C110.059 34.1457 110.4 36.7684 111.079 39.2578L51.4648 39.2578C29.4922 39.2578 15.7227 49.6094 15.7227 65.918C15.7227 82.5195 30.4688 93.75 59.8633 96.7773L115.527 102.637C153.418 106.445 173.047 123.828 173.047 150.391C173.047 176.367 153.125 192.773 121.582 192.773L61.9241 192.773C62.631 190.225 62.9883 187.536 62.9883 184.766C62.9883 182.102 62.6542 179.512 61.9894 177.051L121.582 177.051C143.555 177.051 157.324 166.699 157.324 150.391C157.324 133.789 142.48 122.559 113.184 119.531L57.3242 113.672C19.5312 109.863 0 92.4805 0 65.918C0 39.9414 19.9219 23.5352 51.4648 23.5352L111.114 23.5352C110.413 26.0551 110.059 28.7111 110.059 31.4453Z" fill="black" fill-opacity="0.85"/>
  <path d="M31.543 216.309C48.9258 216.309 62.9883 202.148 62.9883 184.766C62.9883 167.48 48.9258 153.32 31.543 153.32C14.1602 153.32 0.0976562 167.48 0.0976562 184.766C0.0976562 202.148 14.1602 216.309 31.543 216.309ZM31.543 200.977C22.5586 200.977 15.4297 193.848 15.4297 184.766C15.4297 175.684 22.5586 168.652 31.543 168.652C40.625 168.652 47.6562 175.684 47.6562 184.766C47.6562 193.848 40.7227 200.977 31.543 200.977ZM141.504 62.9883C158.984 62.9883 173.047 48.8281 173.047 31.4453C173.047 14.1602 158.984 0 141.504 0C124.219 0 110.059 14.1602 110.059 31.4453C110.059 48.8281 124.219 62.9883 141.504 62.9883ZM141.504 47.6562C132.52 47.6562 125.391 40.5273 125.391 31.4453C125.391 22.3633 132.617 15.332 141.504 15.332C150.684 15.332 157.715 22.3633 157.715 31.4453C157.715 40.5273 150.684 47.6562 141.504 47.6562Z" fill="black" fill-opacity="0.85"/>
 </g>
</svg>
