<?xml version="1.0" encoding="UTF-8"?>
<!--Generator: Apple Native CoreSVG 326-->
<!DOCTYPE svg
PUBLIC "-//W3C//DTD SVG 1.1//EN"
       "http://www.w3.org/Graphics/SVG/1.1/DTD/svg11.dtd">
<svg version="1.1" xmlns="http://www.w3.org/2000/svg" xmlns:xlink="http://www.w3.org/1999/xlink" viewBox="0 0 216.913 221.191">
 <g>
  <rect height="221.191" opacity="0" width="216.913" x="0" y="0"/>
  <path d="M41.6109 205.469C45.6149 208.594 50.693 207.52 56.7477 203.125L108.408 165.137L160.166 203.125C166.22 207.52 171.201 208.594 175.302 205.469C179.306 202.441 180.185 197.461 177.744 190.332L157.334 129.59L209.482 92.0898C215.537 87.793 217.978 83.3008 216.416 78.418C214.853 73.7305 210.263 71.3867 202.744 71.4844L138.779 71.875L119.345 10.8398C117.002 3.61328 113.486 0 108.408 0C103.427 0 99.9117 3.61328 97.568 10.8398L78.1344 71.875L14.1695 71.4844C6.65001 71.3867 2.06017 73.7305 0.497668 78.418C-1.16249 83.3008 1.37657 87.793 7.43126 92.0898L59.5797 129.59L39.1695 190.332C36.7281 197.461 37.607 202.441 41.6109 205.469ZM55.6734 186.133C55.4781 185.938 55.5758 185.84 55.6734 185.254L75.107 129.395C76.4742 125.586 75.693 122.559 72.275 120.215L23.6422 86.6211C23.1539 86.3281 23.0563 86.1328 23.1539 85.8398C23.2516 85.5469 23.4469 85.5469 24.0328 85.5469L83.1149 86.6211C87.1188 86.7188 89.6578 85.0586 90.9274 81.0547L107.92 24.5117C108.017 23.9258 108.213 23.7305 108.408 23.7305C108.701 23.7305 108.896 23.9258 108.994 24.5117L125.986 81.0547C127.255 85.0586 129.795 86.7188 133.798 86.6211L192.88 85.5469C193.466 85.5469 193.662 85.5469 193.759 85.8398C193.857 86.1328 193.662 86.3281 193.271 86.6211L144.638 120.215C141.22 122.559 140.439 125.586 141.806 129.395L161.24 185.254C161.338 185.84 161.435 185.938 161.24 186.133C161.045 186.426 160.752 186.23 160.361 185.938L113.388 150.098C110.263 147.656 106.65 147.656 103.525 150.098L56.5524 185.938C56.1617 186.23 55.8688 186.426 55.6734 186.133Z" fill="black" fill-opacity="0.85"/>
 </g>
</svg>
