<?xml version="1.0" encoding="UTF-8"?>
<!--Generator: Apple Native CoreSVG 326-->
<!DOCTYPE svg
PUBLIC "-//W3C//DTD SVG 1.1//EN"
       "http://www.w3.org/Graphics/SVG/1.1/DTD/svg11.dtd">
<svg version="1.1" xmlns="http://www.w3.org/2000/svg" xmlns:xlink="http://www.w3.org/1999/xlink" viewBox="0 0 216.913 221.191">
 <g>
  <rect height="221.191" opacity="0" width="216.913" x="0" y="0"/>
  <path d="M41.6109 205.469C45.6149 208.594 50.693 207.52 56.7477 203.125L108.408 165.137L160.166 203.125C166.22 207.52 171.201 208.594 175.302 205.469C179.306 202.441 180.185 197.461 177.744 190.332L157.334 129.59L209.482 92.0898C215.537 87.793 217.978 83.3008 216.416 78.418C214.853 73.7305 210.263 71.4844 202.744 71.4844L138.779 71.4844L119.345 10.8398C117.002 3.61328 113.486 0 108.408 0C103.427 0 99.9117 3.61328 97.568 10.8398L78.1344 71.4844L14.1695 71.4844C6.65001 71.4844 2.06017 73.7305 0.497668 78.418C-1.16249 83.3008 1.37657 87.793 7.43126 92.0898L59.5797 129.59L39.1695 190.332C36.7281 197.461 37.607 202.441 41.6109 205.469Z" fill="black" fill-opacity="0.85"/>
 </g>
</svg>
